<svg height="1346.176" viewBox="0 0 964.648 1346.176" width="964.648" xmlns="http://www.w3.org/2000/svg"><path d="m914.441 527.827-887.944-509.897c-11.367-6.527-25.537 1.704-25.497 14.812l2.313 762.47c.017 5.627 3.019 10.821 7.885 13.646l924.034 536.199c.58.337 1.308-.081 1.31-.752l2.436-773.943c.054-17.557-9.312-33.793-24.537-42.536z" fill="#fff"/><path d="m935.67 1346.178c-.323 0-.646-.086-.94-.256l-924.034-536.199c-5.153-2.991-8.365-8.55-8.383-14.508l-2.313-762.47c-.02-6.518 3.333-12.363 8.969-15.638 5.636-3.273 12.374-3.291 18.026-.045l887.944 509.897c15.5 8.899 25.094 25.532 25.04 43.405l-2.437 773.943c-.002.676-.353 1.281-.94 1.617-.292.168-.612.252-.932.252zm-917.65-1329.534c-2.765 0-5.529.731-8.046 2.193-5.01 2.911-7.991 8.107-7.974 13.902l2.313 762.47c.016 5.25 2.847 10.148 7.387 12.783l923.842 536.089 2.436-773.722c.053-17.157-9.157-33.122-24.036-41.665l-887.943-509.897c-2.5-1.436-5.24-2.153-7.979-2.153z"/><path d="m956.712 530.458c4.49 7.503 6.964 16.206 6.936 25.26l-2.432 773.933-24.95 15.297c.163-.164.272-.382.272-.635l2.431-773.952c.027-8.65-2.235-16.983-6.36-24.257l24.102-15.646z"/><path d="m936.267 1345.948c-.297 0-.589-.132-.785-.38-.314-.396-.282-.966.075-1.325l2.413-773.885c.026-8.312-2.128-16.528-6.23-23.762-.261-.46-.118-1.044.326-1.332l24.102-15.646c.227-.147.506-.197.771-.135.265.061.493.228.632.46 4.659 7.785 7.106 16.698 7.078 25.776l-2.432 773.934c0 .347-.182.668-.478.85l-24.95 15.297c-.163.1-.343.147-.522.147zm-2.33-799.514c3.976 7.333 6.059 15.585 6.033 23.93l-2.428 772.629 22.676-13.902 2.43-773.376c.026-8.368-2.139-16.59-6.271-23.848z"/><path d="m932.61 546.104c-4.242-7.481-10.454-13.842-18.173-18.276l-887.944-509.895c-5.625-3.23-11.94-2.849-16.876-.055 4.754-2.94 21.158-13.119 26.057-15.351 4.7-2.123 10.379-2.177 15.497.762l887.943 509.895c7.377 4.229 13.377 10.222 17.597 17.274l-24.102 15.646z" fill="#fff"/><path d="m932.61 547.104c-.079 0-.159-.01-.237-.028-.268-.065-.497-.238-.633-.479-4.224-7.448-10.379-13.639-17.801-17.901l-887.944-509.896c-4.966-2.853-10.905-2.872-15.885-.052-.474.269-1.076.107-1.353-.36-.278-.469-.129-1.073.334-1.36l.569-.353c5.696-3.523 20.823-12.883 25.601-15.059 5.34-2.412 11.32-2.119 16.409.805l887.943 509.896c7.378 4.229 13.588 10.325 17.958 17.628.276.462.137 1.06-.314 1.353l-24.102 15.646c-.164.106-.353.161-.544.161zm-914.603-532.46c3.087 0 6.174.808 8.984 2.422l887.943 509.896c7.425 4.265 13.634 10.381 18.012 17.731l22.404-14.543c-4.161-6.645-9.93-12.198-16.733-16.099l-887.944-509.896c-4.525-2.599-9.842-2.86-14.586-.718-3.408 1.553-12.666 7.131-19.397 11.256.438-.033.877-.05 1.317-.05z"/><path d="m1.131 75.963 937.848 540.852v-46.451c.054-17.557-9.313-33.793-24.538-42.536l-887.944-509.898c-11.367-6.527-25.537 1.704-25.497 14.812z" fill="#87c159"/><path d="m938.979 617.815c-.172 0-.345-.045-.5-.134l-937.847-540.852c-.309-.178-.5-.507-.5-.863l-.132-43.221c-.02-6.518 3.333-12.363 8.969-15.638 5.636-3.273 12.374-3.291 18.026-.045l887.944 509.897c15.5 8.899 25.094 25.532 25.04 43.405v46.449c0 .357-.19.688-.5.866-.155.089-.327.134-.5.134zm-936.85-542.431 935.849 539.699v-44.721c.053-17.16-9.157-33.125-24.036-41.668l-887.943-509.897c-5.024-2.885-11.015-2.87-16.025.04-5.01 2.911-7.991 8.107-7.974 13.902z"/><ellipse cx="33.432" cy="60.339" fill="#adc4cb" rx="12.783" ry="22.481" transform="matrix(.8660254 -.5 .5 .8660254 -25.69 24.8)"/><path d="m40.603 81.856c-6.269 0-13.888-5.586-19.107-14.626-6.583-11.402-6.497-23.361.196-27.227 6.694-3.863 17.094 2.042 23.677 13.444s6.498 23.361-.196 27.227c-1.386.8-2.933 1.182-4.57 1.182zm-14.338-41.032c-1.294 0-2.502.294-3.573.912-5.627 3.249-5.386 14.237.536 24.494 5.922 10.257 15.318 15.96 20.945 12.712 5.626-3.249 5.386-14.237-.537-24.494-4.794-8.305-11.866-13.624-17.371-13.624z"/><ellipse cx="80.166" cy="88.128" fill="#dbf301" rx="12.783" ry="22.481" transform="matrix(.8660254 -.5 .5 .8660254 -33.324 51.89)"/><path d="m87.336 109.645c-6.269 0-13.888-5.586-19.107-14.626-6.583-11.402-6.497-23.361.196-27.227 6.695-3.861 17.094 2.042 23.677 13.444s6.497 23.361-.196 27.227c-1.386.8-2.933 1.182-4.57 1.182zm-14.338-41.032c-1.294 0-2.501.294-3.573.912-5.626 3.249-5.386 14.236.536 24.494 5.921 10.257 15.317 15.96 20.945 12.712 5.626-3.249 5.386-14.236-.536-24.494-4.794-8.305-11.867-13.624-17.372-13.624z"/><ellipse cx="126.369" cy="114.277" fill="#fff" rx="12.783" ry="22.481" transform="matrix(.8660254 -.5 .5 .8660254 -40.208 78.495)"/><path d="m133.539 135.794c-6.268 0-13.887-5.586-19.107-14.626-3.087-5.348-4.806-11.077-4.839-16.132-.035-5.26 1.753-9.199 5.036-11.095 6.694-3.86 17.093 2.042 23.677 13.444 3.087 5.348 4.806 11.077 4.839 16.132.035 5.26-1.753 9.199-5.036 11.095-1.386.8-2.933 1.182-4.57 1.182zm-14.338-41.032c-1.294 0-2.501.294-3.573.912-2.632 1.52-4.065 4.84-4.036 9.35.031 4.714 1.655 10.092 4.572 15.145 5.922 10.258 15.318 15.961 20.944 12.712 2.632-1.52 4.065-4.84 4.036-9.35-.031-4.714-1.655-10.092-4.572-15.145-4.794-8.305-11.867-13.624-17.372-13.624z"/></svg>